# xmcd CD database file
# Copyright (C) 1995 Ti Kan
#
# Track frame offsets:
#	150
#	18247
#	38667
#	61145
#	83602
#	103032
#	124312
#	143960
#	158952
#	177145
#	196372
#	214454
#	234014
#	250162
#	268649
#	286849
#	314474
#
# Disc length: 4433 seconds
#
# Revision: 1
# Processed by: cddbd v1.5PL3 Copyright (c) Steve Scherf et al.
# Submitted via: NotifyCDPlayer(CDDB) 1.07
#
DISCID=e8114f11
DTITLE=Kenny G - Greatest Hits
DYEAR=1900
DGENRE=
TTITLE0=Songbird
TTITLE1=Silhoutte
TTITLE2=Forever In Love
TTITLE3=Everytime I Close My Eyes
TTITLE4=Sentimental
TTITLE5=The Moment
TTITLE6=How Could An Agel Break My Heart
TTITLE7=Loving You
TTITLE8=You Send Me
TTITLE9=Going Home
TTITLE10=Havana
TTITLE11=By The Time This Night Is Over
TTITLE12=Baby G
TTITLE13=Don't Make Me Wait For Love
TTITLE14=Theme from "Dying Young"
TTITLE15=All The Way - One For My Baby
TTITLE16=Innocence
EXTD=
EXTT0=
EXTT1=
EXTT2=
EXTT3=
EXTT4=
EXTT5=
EXTT6=
EXTT7=
EXTT8=
EXTT9=
EXTT10=
EXTT11=
EXTT12=
EXTT13=
EXTT14=
EXTT15=
EXTT16=
PLAYORDER=
